<svg xmlns="http://www.w3.org/2000/svg" width="338" height="133.68" viewBox="0 0 338 133.68"><circle fill="#0071BC" cx="229.213" cy="66.84" r="66.84"/><path fill="#0071BC" d="M16.193 76.206v-18.06H5.166v18.06H2.402v-20.39h16.555v20.39h-2.764zm23.313-14.254c0 1.93-.629 3.464-1.889 4.602-1.259 1.139-2.969 1.708-5.13 1.708h-5.991v7.944h-2.764v-20.39h8.582c2.286 0 4.057.535 5.311 1.606 1.254 1.071 1.881 2.58 1.881 4.53zm-2.778.029c0-2.634-1.583-3.951-4.747-3.951h-5.484v8.046h5.6c3.087 0 4.631-1.366 4.631-4.095zm25.324 3.936c0 2.133-.408 3.999-1.223 5.601-.815 1.602-1.985 2.831-3.509 3.69-1.524.858-3.324 1.287-5.398 1.287-2.093 0-3.9-.424-5.419-1.273-1.52-.849-2.68-2.076-3.48-3.683-.801-1.606-1.201-3.48-1.201-5.622 0-3.261.892-5.81 2.677-7.647 1.785-1.838 4.269-2.757 7.453-2.757 2.074 0 3.873.412 5.397 1.237 1.524.824 2.689 2.023 3.495 3.596s1.208 3.429 1.208 5.571zm-2.822 0c0-2.537-.635-4.529-1.903-5.977-1.269-1.447-3.061-2.171-5.376-2.171-2.335 0-4.139.715-5.413 2.142-1.273 1.429-1.91 3.43-1.91 6.006 0 2.557.644 4.585 1.932 6.085 1.288 1.501 3.075 2.251 5.361 2.251 2.354 0 4.161-.727 5.419-2.179 1.261-1.451 1.89-3.504 1.89-6.157zm15.701-8.148c-2.257 0-4.013.727-5.267 2.179-1.254 1.451-1.881 3.441-1.881 5.969 0 2.499.653 4.508 1.961 6.027 1.307 1.52 3.075 2.279 5.303 2.279 2.856 0 5.002-1.413 6.44-4.24l2.257 1.129c-.839 1.756-2.019 3.092-3.538 4.009-1.52.916-3.283 1.374-5.289 1.374-2.055 0-3.833-.427-5.333-1.28-1.5-.854-2.644-2.074-3.43-3.661-.787-1.587-1.18-3.466-1.18-5.637 0-3.251.878-5.798 2.634-7.641s4.187-2.764 7.293-2.764c2.171 0 3.984.425 5.441 1.273 1.457.849 2.527 2.107 3.212 3.776l-2.619.868c-.473-1.187-1.233-2.093-2.279-2.72-1.045-.625-2.287-.94-3.725-.94zm19.377.305v18.132h-2.749V58.074h-7.004v-2.258h16.758v2.258h-7.005zm25.889 3.878c0 1.93-.629 3.464-1.889 4.602-1.259 1.139-2.969 1.708-5.13 1.708h-5.991v7.944h-2.764v-20.39h8.582c2.286 0 4.057.535 5.311 1.606 1.254 1.071 1.881 2.58 1.881 4.53zm-2.779.029c0-2.634-1.583-3.951-4.747-3.951h-5.484v8.046h5.6c3.088 0 4.631-1.366 4.631-4.095zm19.247 14.225l-2.33-5.962h-9.291l-2.344 5.962h-2.865l8.321-20.39h3.14l8.19 20.39h-2.821zM129.69 57.9l-.13.405a49.708 49.708 0 0 1-1.071 3.082l-2.604 6.7h7.626l-2.619-6.729a32.51 32.51 0 0 1-.811-2.257l-.391-1.201zm26.077 18.306v-9.449H144.74v9.449h-2.764v-20.39h2.764v8.625h11.027v-8.625h2.764v20.39h-2.764z"/><path fill="#FFF" d="M172.408 57.769c-2.257 0-4.013.727-5.267 2.179-1.254 1.451-1.881 3.441-1.881 5.969 0 2.499.653 4.508 1.961 6.027 1.307 1.52 3.075 2.279 5.303 2.279 2.856 0 5.002-1.413 6.44-4.24l2.257 1.129c-.839 1.756-2.019 3.092-3.538 4.009-1.52.916-3.283 1.374-5.289 1.374-2.055 0-3.833-.427-5.333-1.28-1.5-.854-2.644-2.074-3.43-3.661-.787-1.587-1.18-3.466-1.18-5.637 0-3.251.878-5.798 2.634-7.641s4.187-2.764 7.293-2.764c2.171 0 3.984.425 5.441 1.273 1.457.849 2.527 2.107 3.212 3.776l-2.619.868c-.473-1.187-1.233-2.093-2.279-2.72-1.045-.625-2.287-.94-3.725-.94zm19.377.305v18.132h-2.749V58.074h-7.004v-2.258h16.758v2.258h-7.005zm25.889 12.386c0 1.813-.661 3.225-1.982 4.232-1.322 1.009-3.16 1.513-5.514 1.513h-8.277v-20.39h7.409c4.785 0 7.178 1.649 7.178 4.949 0 1.206-.338 2.219-1.013 3.039-.675.819-1.63 1.37-2.865 1.649 1.621.193 2.87.735 3.748 1.628s1.316 2.02 1.316 3.38zm-3.965-9.362c0-1.101-.376-1.887-1.129-2.359s-1.843-.709-3.271-.709h-4.645v6.454h4.645c1.476 0 2.578-.277 3.307-.832.729-.555 1.093-1.406 1.093-2.554zm1.172 9.146c0-2.402-1.688-3.604-5.065-3.604h-5.151v7.352h5.369c1.688 0 2.918-.313 3.69-.94s1.157-1.564 1.157-2.808zm25.006-4.327c0 2.133-.408 3.999-1.223 5.601-.815 1.602-1.985 2.831-3.509 3.69-1.524.858-3.324 1.287-5.398 1.287-2.093 0-3.9-.424-5.419-1.273-1.52-.849-2.68-2.076-3.48-3.683-.801-1.606-1.201-3.48-1.201-5.622 0-3.261.892-5.81 2.677-7.647 1.785-1.838 4.269-2.757 7.453-2.757 2.074 0 3.873.412 5.397 1.237 1.524.824 2.689 2.023 3.495 3.596s1.208 3.429 1.208 5.571zm-2.822 0c0-2.537-.635-4.529-1.903-5.977-1.269-1.447-3.061-2.171-5.376-2.171-2.335 0-4.139.715-5.413 2.142-1.273 1.429-1.91 3.43-1.91 6.006 0 2.557.644 4.585 1.932 6.085 1.288 1.501 3.075 2.251 5.361 2.251 2.354 0 4.161-.727 5.419-2.179 1.261-1.451 1.89-3.504 1.89-6.157z"/><circle fill="#39B54A" cx="288.881" cy="83.434" r="49.119"/><path d="M203.331 87.174c0 1.016-.37 1.806-1.11 2.37-.74.564-1.77.847-3.087.847h-4.635V78.974h4.148c2.68 0 4.019.924 4.019 2.771 0 .675-.189 1.242-.567 1.701-.378.459-.913.768-1.604.924.908.108 1.607.412 2.099.912.491.5.737 1.131.737 1.892zm-2.22-5.242c0-.616-.21-1.057-.632-1.321s-1.032-.396-1.832-.396h-2.601v3.613h2.601c.827 0 1.444-.155 1.852-.466s.612-.787.612-1.43zm.656 5.12c0-1.345-.945-2.018-2.836-2.018h-2.884v4.117h3.006c.945 0 1.634-.176 2.066-.527.432-.35.648-.874.648-1.572zm14.002-2.422c0 1.193-.228 2.239-.685 3.136s-1.111 1.585-1.965 2.065c-.854.481-1.861.722-3.022.722-1.172 0-2.184-.237-3.035-.713s-1.5-1.163-1.949-2.063-.672-1.948-.672-3.147c0-1.826.5-3.254 1.499-4.283.999-1.028 2.39-1.543 4.173-1.543 1.161 0 2.169.23 3.022.692s1.506 1.134 1.957 2.014c.451.881.677 1.921.677 3.12zm-1.58 0c0-1.421-.355-2.536-1.065-3.347s-1.714-1.216-3.01-1.216c-1.307 0-2.317.4-3.03 1.199-.713.8-1.07 1.921-1.07 3.363 0 1.431.361 2.567 1.082 3.407.721.84 1.722 1.26 3.002 1.26 1.318 0 2.33-.406 3.035-1.22.703-.811 1.056-1.96 1.056-3.446zm7.406 5.923c-1.102 0-2.009-.218-2.723-.652-.713-.435-1.302-1.157-1.766-2.168l1.337-.623c.643 1.469 1.674 2.203 3.095 2.203.827 0 1.478-.191 1.953-.575.476-.383.713-.921.713-1.612 0-.718-.259-1.236-.778-1.556-.519-.318-1.324-.478-2.415-.478h-.575v-1.199h.575c.978 0 1.701-.161 2.168-.482.467-.321.701-.814.701-1.479 0-.578-.196-1.033-.587-1.366-.392-.332-.952-.498-1.681-.498-.681 0-1.253.158-1.718.475-.464.315-.834.825-1.11 1.527l-1.442-.495c.378-.934.924-1.628 1.637-2.082.713-.454 1.61-.681 2.69-.681 1.145 0 2.058.269 2.739.807.681.537 1.021 1.263 1.021 2.176 0 .686-.195 1.253-.583 1.701-.389.448-.951.759-1.686.932.821.124 1.461.423 1.92.896s.689 1.065.689 1.778c0 1.054-.375 1.893-1.123 2.517-.749.622-1.766.934-3.051.934zm16.06-.162v-7.617c0-.842.024-1.652.073-2.431-.265.968-.502 1.724-.713 2.27l-2.949 7.778h-1.086l-2.99-7.778-.454-1.378-.267-.892.024.899.032 1.531v7.617h-1.377V78.974h2.034l3.039 7.917c.108.318.212.66.312 1.024.1.365.166.628.199.79.043-.216.133-.544.271-.984.138-.44.231-.717.279-.83l2.982-7.917h1.985v11.417h-1.394zm14.869-5.761c0 1.193-.229 2.239-.686 3.136a4.811 4.811 0 0 1-1.965 2.065c-.854.481-1.859.722-3.021.722-1.172 0-2.184-.237-3.035-.713s-1.5-1.163-1.949-2.063-.672-1.948-.672-3.147c0-1.826.5-3.254 1.499-4.283.999-1.028 2.39-1.543 4.173-1.543 1.162 0 2.169.23 3.023.692s1.506 1.134 1.957 2.014c.451.881.676 1.921.676 3.12zm-1.58 0c0-1.421-.355-2.536-1.066-3.347-.709-.811-1.713-1.216-3.009-1.216-1.307 0-2.317.4-3.03 1.199-.713.8-1.07 1.921-1.07 3.363 0 1.431.361 2.567 1.082 3.407.721.84 1.722 1.26 3.002 1.26 1.318 0 2.33-.406 3.035-1.22.704-.811 1.056-1.96 1.056-3.446zm8.897.535c-.2 0-.45-.035-.75-.105a3.426 3.426 0 0 1-.652-.202l-3.46 5.534h-1.799l4.125-6.279c-.26-.189-.743-.795-1.451-1.815l-2.293-3.322h1.621l1.661 2.472c.6.902 1.028 1.497 1.288 1.786s.508.488.745.596c.238.108.56.162.965.162v-5.016h1.548v5.016c.404 0 .729-.056.972-.166s.497-.316.762-.616.687-.887 1.265-1.762l1.661-2.472h1.62l-2.293 3.322c-.708 1.021-1.191 1.626-1.45 1.815l4.124 6.279h-1.799l-3.46-5.534c-.135.064-.35.133-.645.202-.294.07-.547.105-.757.105v5.227h-1.548v-5.227zm17.518 5.226V85.1h-6.174v5.291h-1.548V78.974h1.548v4.829h6.174v-4.829h1.548v11.417h-1.548zm15.016-5.761c0 1.193-.229 2.239-.686 3.136a4.817 4.817 0 0 1-1.965 2.065c-.854.481-1.86.722-3.022.722-1.172 0-2.184-.237-3.034-.713s-1.5-1.163-1.948-2.063c-.449-.899-.673-1.948-.673-3.147 0-1.826.499-3.254 1.499-4.283.999-1.028 2.391-1.543 4.173-1.543 1.161 0 2.169.23 3.022.692s1.506 1.134 1.957 2.014c.451.881.677 1.921.677 3.12zm-1.581 0c0-1.421-.355-2.536-1.066-3.347-.71-.811-1.713-1.216-3.01-1.216-1.308 0-2.317.4-3.03 1.199-.713.8-1.069 1.921-1.069 3.363 0 1.431.36 2.567 1.081 3.407.722.84 1.722 1.26 3.002 1.26 1.318 0 2.33-.406 3.035-1.22.705-.811 1.057-1.96 1.057-3.446zm8.791-4.562c-1.265 0-2.248.406-2.95 1.22s-1.053 1.927-1.053 3.343c0 1.398.365 2.523 1.098 3.374.731.852 1.722 1.276 2.97 1.276 1.599 0 2.801-.791 3.605-2.374l1.265.632c-.471.983-1.131 1.731-1.981 2.245-.851.513-1.838.77-2.962.77-1.15 0-2.146-.239-2.985-.717a4.707 4.707 0 0 1-1.921-2.051c-.44-.888-.66-1.94-.66-3.155 0-1.82.491-3.247 1.475-4.278.983-1.032 2.345-1.548 4.084-1.548 1.216 0 2.23.237 3.047.713.815.476 1.415 1.181 1.799 2.115l-1.467.485a3.027 3.027 0 0 0-1.276-1.523c-.588-.351-1.283-.527-2.088-.527zm10.85.17v10.153h-1.539V80.238h-3.922v-1.264h9.383v1.264h-3.922zm5.664 10.153V78.974h8.662v1.264h-7.114v3.663h6.628v1.248h-6.628v3.979h7.446v1.264h-8.994zm11.068 0V78.974h1.394v7.487c0 .615-.021 1.355-.064 2.22l6.077-9.707h1.799v11.417h-1.378v-7.584c0-.659.017-1.346.049-2.059l-6.013 9.643h-1.864zm4.652-12.397c-1.924 0-2.915-.864-2.974-2.593h1.328c.065 1.075.613 1.612 1.646 1.612 1.031 0 1.58-.537 1.645-1.612h1.329c-.06 1.728-1.051 2.593-2.974 2.593z" fill="#FFF"/><path d="M3.926 89.442v.647h-2.53v2.106h2.368v.648H1.396v2.431h2.539v.648H.676v-6.481h3.25zm5.175 0v5.833h.513v2.161H8.93v-1.513h-3.7v1.513h-.685v-2.161h.432c.612-1.063.684-2.241.684-4.177v-1.656h3.44zm-2.719.647v1.684c0 1.53-.207 2.646-.63 3.502h2.629v-5.186H6.382zm4.815-.647v5.293c0 .234-.009.486-.018.721h.018c.09-.298.117-.531.261-.892l2.017-5.122h1.044v6.481h-.72v-5.168c0-.333.009-.666.018-.99h-.018c-.063.388-.135.757-.252 1.054l-2.025 5.104h-1.044v-6.481h.719zm5.391 2.754h2.476v-2.754h.72v6.481h-.72v-3.079h-2.476v3.079h-.72v-6.481h.72v2.754zm5.85-2.754h.955l1.818 6.481h-.792l-.513-1.863h-2.044l-.477 1.863h-.792l1.845-6.481zm.468.521h-.018l-.855 3.448h1.71l-.837-3.448zm5.832 3.206h-.937l-1.413 2.755h-.801l1.458-2.845c-.738-.234-1.243-.702-1.243-1.81 0-1.287.766-1.827 1.945-1.827h1.71v6.481h-.72v-2.754zm0-3.08h-.819c-.864 0-1.368.262-1.368 1.18 0 1.035.585 1.251 1.575 1.251h.612v-2.431zm4.95-.647v5.293c0 .234-.009.486-.018.721h.018c.09-.298.117-.531.261-.892l2.017-5.122h1.044v6.481h-.72v-5.168c0-.333.009-.666.018-.99h-.018c-.063.388-.135.757-.252 1.054l-2.025 5.104h-1.044v-6.481h.719zm5.391 2.754h2.476v-2.754h.72v6.481h-.72v-3.079h-2.476v3.079h-.72v-6.481h.72v2.754zm7.56-2.754v.666h.18c1.152 0 2.332.729 2.332 2.502 0 1.765-1.107 2.53-2.34 2.53h-.171v.783h-.72v-.783h-.18c-1.233 0-2.332-.756-2.332-2.53 0-1.764 1.17-2.502 2.323-2.502h.189v-.666h.719zm-.72 1.313h-.18c-.892 0-1.584.576-1.584 1.837 0 1.287.675 1.899 1.575 1.899h.189v-3.736zm.72 3.737h.189c.9 0 1.575-.612 1.575-1.899 0-1.261-.693-1.837-1.584-1.837h-.18v3.736zm3.455-1.819c0-1.485.243-3.358 2.134-3.358 1.899 0 2.143 1.873 2.143 3.358 0 1.792-.252 3.403-2.143 3.403s-2.134-1.611-2.134-3.403zm2.116-2.71c-1.107 0-1.369 1.144-1.369 2.593 0 1.882.198 2.872 1.387 2.872s1.396-.99 1.396-2.863c0-1.449-.271-2.602-1.414-2.602zm4.049 5.96h-.72v-6.481h1.8c1.18 0 1.954.549 1.954 1.827 0 1.513-.918 1.908-2.088 1.908h-.945v2.746zm0-3.393h.702c.99 0 1.584-.153 1.584-1.261 0-.918-.513-1.18-1.377-1.18h-.909v2.441zm5.473-3.088l1.269 5.059c.063.271.099.541.135.955h.018c.045-.324.063-.595.162-.964l1.288-5.05h1.27v6.481h-.72v-5.339c0-.279.027-.576.027-.819h-.027c-.09.379-.153.604-.216.864l-1.359 5.294h-.855l-1.359-5.365c-.054-.226-.108-.441-.189-.793h-.018c0 .343.027.559.027.838v5.32h-.72v-6.481h1.267zm6.794 0h.955l1.818 6.481h-.792l-.513-1.863H67.95l-.477 1.863h-.792l1.845-6.481zm.469.521h-.018l-.855 3.448h1.71l-.837-3.448zm3.834 5.312h2.476v-5.833h.72v5.833h.522v2.161h-.684v-1.513h-3.754v-6.481h.72v5.833zm5.292-5.833v5.293c0 .234-.009.486-.018.721h.018c.09-.298.117-.531.261-.892l2.017-5.122h1.044v6.481h-.72v-5.168c0-.333.009-.666.018-.99h-.018c-.063.388-.135.757-.252 1.054l-2.025 5.104H77.4v-6.481h.721zm4.49 3.231c0-1.485.243-3.358 2.134-3.358 1.899 0 2.143 1.873 2.143 3.358 0 1.792-.252 3.403-2.143 3.403s-2.134-1.611-2.134-3.403zm2.116-2.71c-1.107 0-1.369 1.144-1.369 2.593 0 1.882.198 2.872 1.387 2.872s1.396-.99 1.396-2.863c-.001-1.449-.271-2.602-1.414-2.602zm4.049 2.233h2.476v-2.754h.72v6.481h-.72v-3.079h-2.476v3.079h-.72v-6.481h.72v2.754zm5.265 0h2.476v-2.754h.72v6.481h-.72v-3.079h-2.476v3.079h-.72v-6.481h.72v2.754zm5.85-2.754h.955l1.818 6.481h-.792l-.513-1.863h-2.044l-.477 1.863h-.792l1.845-6.481zm.468.521h-.018l-.855 3.448h1.71l-.837-3.448zm5.833 3.206h-.937l-1.413 2.755h-.801l1.458-2.845c-.738-.234-1.243-.702-1.243-1.81 0-1.287.765-1.827 1.945-1.827h1.71v6.481h-.72v-2.754zm0-3.08h-.819c-.864 0-1.368.262-1.368 1.18 0 1.035.585 1.251 1.575 1.251h.612v-2.431zm7.218 1.297c0-.783-.261-1.423-1.161-1.423-1.251 0-1.261 1.765-1.261 2.62 0 1.314.072 2.845 1.261 2.845.936 0 1.089-.774 1.161-1.846h.72c-.081 1.494-.45 2.494-1.828 2.494-1.908 0-2.062-1.945-2.062-3.476 0-1.458.27-3.286 2.043-3.286 1.225 0 1.846.91 1.846 2.071h-.719zm2.573-1.944v5.293c0 .234-.009.486-.018.721h.018c.09-.298.117-.531.261-.892l2.017-5.122h1.044v6.481h-.72v-5.168c0-.333.009-.666.018-.99h-.018c-.063.388-.135.757-.252 1.054l-2.025 5.104h-1.044v-6.481h.719zm7.66 1.944c0-.783-.261-1.423-1.161-1.423-1.251 0-1.261 1.765-1.261 2.62 0 1.314.072 2.845 1.261 2.845.936 0 1.089-.774 1.161-1.846h.72c-.081 1.494-.45 2.494-1.828 2.494-1.909 0-2.062-1.945-2.062-3.476 0-1.458.27-3.286 2.043-3.286 1.225 0 1.846.91 1.846 2.071h-.719zm3.707 4.537h-.72v-5.834h-1.684v-.647h4.078v.647h-1.674v5.834zm5.725-6.481v.647h-2.53v2.106h2.368v.648h-2.368v2.431h2.539v.648h-3.259v-6.481h3.25zm2.375 0l1.27 5.059c.063.271.099.541.135.955h.018c.045-.324.063-.595.162-.964l1.287-5.05h1.27v6.481h-.72v-5.339c0-.279.027-.576.027-.819h-.027c-.09.379-.153.604-.216.864l-1.359 5.294h-.855l-1.359-5.365c-.054-.226-.108-.441-.189-.793h-.018c0 .343.027.559.027.838v5.32h-.72v-6.481h1.267zm6.795 0h.955l1.818 6.481h-.792l-.513-1.863h-2.044l-.477 1.863h-.792l1.845-6.481zm.468.521h-.018l-.855 3.448h1.71l-.837-3.448zM4.592 100.241v6.482h-.72v-5.834H1.396v5.834h-.72v-6.482h3.916zm2.069 6.482h-.72v-6.482h1.8c1.18 0 1.954.55 1.954 1.828 0 1.513-.918 1.908-2.088 1.908h-.946v2.746zm0-3.393h.702c.99 0 1.584-.153 1.584-1.261 0-.918-.513-1.18-1.377-1.18h-.909v2.441zm4.023.143c0-1.485.243-3.358 2.134-3.358 1.899 0 2.143 1.873 2.143 3.358 0 1.792-.252 3.403-2.143 3.403s-2.134-1.611-2.134-3.403zm2.115-2.71c-1.107 0-1.369 1.144-1.369 2.593 0 1.882.198 2.872 1.387 2.872 1.188 0 1.396-.99 1.396-2.863 0-1.449-.271-2.602-1.414-2.602zm3.329-.522h1.701c1.216 0 1.783.648 1.783 1.621 0 .72-.333 1.251-.945 1.413v.019c.612.081 1.125.675 1.125 1.575 0 1.206-.666 1.854-1.873 1.854h-1.792v-6.482zm.721 2.755h.891c.72 0 1.125-.261 1.125-1.089 0-.738-.396-1.018-1.053-1.018h-.963v2.107zm0 3.079h1.071c.774 0 1.125-.369 1.125-1.215 0-.873-.45-1.216-1.188-1.216h-1.008v2.431zm7.326-5.834v.648h-2.53v2.106h2.368v.648h-2.368v2.431h2.539v.648h-3.259v-6.482h3.25zm5.176 0v5.834h.513v2.161h-.685v-1.513h-3.7v1.513h-.684v-2.161h.432c.612-1.063.684-2.241.684-4.177v-1.657h3.44zm-2.72.648v1.684c0 1.53-.207 2.646-.63 3.502h2.629v-5.186h-1.999zm7.346-.648v.648h-2.53v2.106h2.368v.648h-2.368v2.431h2.539v.648h-3.259v-6.482h3.25zm1.826 2.755h2.476v-2.755h.72v6.482h-.72v-3.079h-2.476v3.079h-.72v-6.482h.72v2.755zm5.264-2.755v5.294c0 .234-.009.486-.018.721h.018c.09-.298.117-.531.261-.892l2.017-5.123h1.044v6.482h-.72v-5.168c0-.333.009-.666.018-.99h-.018c-.063.388-.135.757-.252 1.054l-2.025 5.104h-1.044v-6.482h.719zm7.39 3.727h-.937l-1.413 2.755h-.801l1.458-2.845c-.738-.234-1.243-.702-1.243-1.81 0-1.287.766-1.828 1.945-1.828h1.71v6.482h-.72v-2.754zm0-3.079h-.819c-.864 0-1.368.262-1.368 1.18 0 1.035.585 1.251 1.575 1.251h.612v-2.431zm4.949 2.683l2.358-3.331h.9l-2.07 2.71 2.133 3.772h-.837l-1.729-3.205-.756.945v2.26h-.72v-6.482h.72v3.331zm3.753-.099c0-1.485.243-3.358 2.134-3.358 1.899 0 2.143 1.873 2.143 3.358 0 1.792-.252 3.403-2.143 3.403s-2.134-1.611-2.134-3.403zm2.116-2.71c-1.107 0-1.369 1.144-1.369 2.593 0 1.882.198 2.872 1.387 2.872 1.188 0 1.396-.99 1.396-2.863-.001-1.449-.271-2.602-1.414-2.602zm4.049 2.233H65.8v-2.755h.72v6.482h-.72v-3.079h-2.476v3.079h-.72v-6.482h.72v2.755zm5.265.576l2.358-3.331h.9l-2.07 2.71 2.133 3.772h-.837l-1.729-3.205-.756.945v2.26h-.72v-6.482h.72v3.331zm4.356-3.331l1.512 4.502 1.387-4.502h.756l-1.782 5.411c-.315.963-.684 1.225-1.207 1.225-.288 0-.45-.036-.549-.081v-.648c.117.063.315.081.478.081.252 0 .405-.117.549-.612l-1.908-5.375h.764zm5.04 6.482h-.72v-6.482h1.8c1.18 0 1.954.55 1.954 1.828 0 1.513-.918 1.908-2.088 1.908h-.945v2.746zm0-3.393h.702c.99 0 1.584-.153 1.584-1.261 0-.918-.513-1.18-1.377-1.18h-.909v2.441zm7.191-1.144c0-.783-.261-1.423-1.161-1.423-1.251 0-1.261 1.765-1.261 2.62 0 1.314.072 2.845 1.261 2.845.936 0 1.089-.774 1.161-1.846h.72c-.081 1.494-.45 2.494-1.828 2.494-1.908 0-2.062-1.945-2.062-3.476 0-1.458.27-3.286 2.043-3.286 1.225 0 1.846.91 1.846 2.071h-.719zm1.674 1.287c0-1.485.243-3.358 2.134-3.358 1.899 0 2.143 1.873 2.143 3.358 0 1.792-.252 3.403-2.143 3.403s-2.134-1.611-2.134-3.403zm2.115-2.71c-1.107 0-1.369 1.144-1.369 2.593 0 1.882.198 2.872 1.387 2.872 1.188 0 1.396-.99 1.396-2.863 0-1.449-.271-2.602-1.414-2.602zm3.329-.522h1.701c1.216 0 1.783.648 1.783 1.621 0 .72-.333 1.251-.945 1.413v.019c.612.081 1.125.675 1.125 1.575 0 1.206-.666 1.854-1.873 1.854h-1.792v-6.482zm.721 2.755h.891c.72 0 1.125-.261 1.125-1.089 0-.738-.396-1.018-1.053-1.018h-.963v2.107zm0 3.079h1.071c.774 0 1.125-.369 1.125-1.215 0-.873-.45-1.216-1.188-1.216h-1.008v2.431zm6.957-3.079h2.476v-2.755h.72v6.482h-.72v-3.079h-2.476v3.079h-.72v-6.482h.72v2.755zm5.85-2.755h.955l1.818 6.482h-.792l-.513-1.863h-2.044l-.477 1.863h-.792l1.845-6.482zm.468.522h-.018l-.855 3.448h1.71l-.837-3.448zm5.129 1.189c.144-1.125.819-1.827 1.926-1.827 1.018 0 1.738.684 1.738 1.603 0 .864-.468 1.332-1 1.539.738.145 1.251.756 1.251 1.711 0 .702-.351 1.899-1.99 1.899-1.431 0-1.917-.874-2.007-2.17h.72c.054.963.333 1.521 1.305 1.521.973 0 1.225-.711 1.225-1.342 0-.612-.441-1.242-1.18-1.242h-.612v-.648h.477c.702 0 1.063-.396 1.063-1.116 0-.711-.396-1.107-1.063-1.107-.603 0-1.063.46-1.134 1.18h-.719zm6.354-1.711h.955l1.818 6.482h-.792l-.513-1.863h-2.044l-.477 1.863h-.792l1.845-6.482zm.469.522h-.018l-.855 3.448h1.71l-.837-3.448zm4.383-.522l1.27 5.06c.063.271.099.541.135.955h.018c.045-.324.063-.595.162-.964l1.287-5.051h1.27v6.482h-.72v-5.339c0-.278.027-.576.027-.819h-.027c-.09.379-.153.604-.216.864l-1.359 5.294h-.855l-1.359-5.365c-.054-.226-.108-.441-.189-.793h-.018c0 .343.027.559.027.838v5.32h-.72v-6.482h1.267zm8.739 0v.648h-2.53v2.106h2.368v.648h-2.368v2.431h2.539v.648h-3.259v-6.482h3.25zm1.826 5.834h2.017v-5.834h.72v5.834h2.017v-5.834h.72v5.834h.522v2.161h-.684v-1.513h-6.032v-6.482h.72v5.834zm10.099-5.834v.648h-2.53v2.106h2.368v.648h-2.368v2.431h2.539v.648h-3.259v-6.482h3.25zm1.826 2.755h2.476v-2.755h.72v6.482h-.72v-3.079h-2.476v3.079h-.72v-6.482h.72v2.755zm5.265-2.755v5.294c0 .234-.009.486-.018.721h.018c.09-.298.117-.531.261-.892l2.017-5.123h1.044v6.482h-.72v-5.168c0-.333.009-.666.018-.99h-.018c-.063.388-.135.757-.252 1.054l-2.025 5.104h-1.044v-6.482h.719zm7.921 0v.648h-2.53v2.106h2.368v.648h-2.368v2.431h2.539v.648h-3.259v-6.482h3.25zM4.745 111.042v5.833h.513v2.161h-.684v-1.513h-3.7v1.513H.189v-2.161h.432c.612-1.063.684-2.241.684-4.177v-1.656h3.44zm-2.719.647v1.684c0 1.53-.207 2.646-.63 3.502h2.629v-5.186H2.026zm3.914 2.584c0-1.485.243-3.358 2.134-3.358 1.899 0 2.143 1.873 2.143 3.358 0 1.792-.252 3.403-2.143 3.403s-2.134-1.611-2.134-3.403zm2.116-2.71c-1.107 0-1.369 1.144-1.369 2.593 0 1.882.198 2.872 1.387 2.872 1.188 0 1.396-.99 1.396-2.863 0-1.45-.271-2.602-1.414-2.602zm7.408-.521v6.481h-.72v-5.834h-2.179v2.566c0 1.449-.027 3.349-1.287 3.349-.135 0-.288-.018-.432-.054v-.64a.818.818 0 0 0 .279.045c.666 0 .72-1.008.72-3.088v-2.826h3.619zm4.85 0v3.33l2.359-3.33h.9l-2.07 2.709 2.133 3.772h-.837l-1.729-3.205-.756.945v2.26h-.72v-2.26l-.756-.945-1.729 3.205h-.837l2.133-3.772-2.07-2.709h.9l2.359 3.33v-3.33h.72zm4.851 2.753h2.476v-2.754h.72v6.481h-.72v-3.079h-2.476v3.079h-.72v-6.481h.72v2.754zm4.364.478c0-1.485.243-3.358 2.134-3.358 1.899 0 2.143 1.873 2.143 3.358 0 1.792-.252 3.403-2.143 3.403s-2.134-1.611-2.134-3.403zm2.116-2.71c-1.107 0-1.369 1.144-1.369 2.593 0 1.882.198 2.872 1.387 2.872 1.188 0 1.396-.99 1.396-2.863 0-1.45-.271-2.602-1.414-2.602zm6.318 1.423c0-.783-.261-1.423-1.161-1.423-1.251 0-1.261 1.765-1.261 2.62 0 1.314.072 2.845 1.261 2.845.936 0 1.089-.774 1.161-1.846h.72c-.081 1.494-.45 2.494-1.828 2.494-1.908 0-2.062-1.945-2.062-3.476 0-1.458.27-3.286 2.043-3.286 1.225 0 1.846.91 1.846 2.071h-.719zm3.708 4.537h-.72v-5.834h-1.684v-.647h4.078v.647h-1.674v5.834zm5.724-6.481v.647h-2.53v2.106h2.368v.648h-2.368v2.431h2.539v.648h-3.259v-6.481h3.25zm1.826 0v5.293c0 .234-.009.486-.018.721h.018c.09-.298.117-.531.261-.892l2.017-5.122h1.044v6.481h-.72v-5.168c0-.333.009-.666.018-.99h-.018c-.063.388-.135.757-.252 1.054l-2.025 5.104h-1.044v-6.481h.719zm.423-1.504c.108.45.405.621.829.621.441 0 .711-.153.81-.621h.369c0 .774-.522 1.107-1.215 1.107-.63 0-1.162-.342-1.162-1.107h.369zm7.128 4.257h2.476v-2.754h.72v6.481h-.72v-3.079h-2.476v3.079h-.72v-6.481h.72v2.754zm5.85-2.753h.955l1.818 6.481h-.792l-.513-1.863h-2.044l-.477 1.863h-.792l1.845-6.481zm.468.521h-.018l-.855 3.448h1.71l-.837-3.448zm2.871-.521l1.512 4.501 1.387-4.501h.756l-1.782 5.41c-.315.963-.684 1.225-1.207 1.225-.288 0-.45-.036-.549-.081v-.648c.117.063.315.081.478.081.252 0 .405-.117.549-.612l-1.908-5.374h.764zm4.996 0v1.638c0 .883.252 1.116 1.188 1.116.279 0 .72-.009 1.071-.071v-2.683h.72v6.481h-.72v-3.16a8.18 8.18 0 0 1-1.215.081c-1.125 0-1.764-.396-1.764-1.684v-1.719h.72zm5.048 2.753h2.476v-2.754h.72v6.481h-.72v-3.079h-2.476v3.079h-.72v-6.481h.72v2.754zm5.265 0h.855c1.17 0 2.089.396 2.089 1.9 0 1.287-.774 1.827-1.945 1.827H80.55v-6.481h.72v2.754zm0 3.08h.819c.864 0 1.377-.261 1.377-1.179 0-1.036-.585-1.252-1.584-1.252h-.612v2.431zm4.654.648h-.72v-6.481h.72v6.481zm1.7-6.481l1.359 2.529 1.359-2.529h.801l-1.737 3.15 1.773 3.331h-.819l-1.377-2.71-1.404 2.71h-.801l1.792-3.331-1.747-3.15h.801zm7.29 6.481h-.72v-6.481h1.8c1.18 0 1.954.549 1.954 1.827 0 1.513-.918 1.908-2.088 1.908h-.945v2.746zm0-3.394h.702c.99 0 1.584-.153 1.584-1.261 0-.918-.513-1.18-1.377-1.18h-.909v2.441zm4.905-3.087h.955l1.818 6.481h-.792l-.513-1.863h-2.044l-.477 1.863h-.792l1.845-6.481zm.468.521h-.018l-.855 3.448h1.71l-.837-3.448zm6.337-.521v.647h-2.502v2.106h.855c1.17 0 2.089.396 2.089 1.9 0 1.287-.774 1.827-1.945 1.827h-1.719v-6.481h3.222zm-2.503 5.833h.819c.864 0 1.377-.261 1.377-1.179 0-1.036-.585-1.252-1.584-1.252h-.612v2.431zm3.897-2.602c0-1.485.243-3.358 2.134-3.358 1.899 0 2.143 1.873 2.143 3.358 0 1.792-.252 3.403-2.143 3.403s-2.134-1.611-2.134-3.403zm2.115-2.71c-1.107 0-1.369 1.144-1.369 2.593 0 1.882.198 2.872 1.387 2.872 1.188 0 1.396-.99 1.396-2.863 0-1.45-.271-2.602-1.414-2.602zm5.184 5.96h-.72v-5.834h-1.684v-.647h4.078v.647h-1.674v5.834zm3.195-3.728h2.476v-2.754h.72v6.481h-.72v-3.079h-2.476v3.079h-.72v-6.481h.72v2.754zm5.265-2.753v5.293c0 .234-.009.486-.018.721h.018c.09-.298.117-.531.261-.892l2.017-5.122h1.044v6.481h-.72v-5.168c0-.333.009-.666.018-.99h-.018c-.063.388-.135.757-.252 1.054l-2.025 5.104h-1.044v-6.481h.719zm5.39 3.33l2.358-3.33h.9l-2.07 2.709 2.133 3.772h-.837l-1.729-3.205-.756.945v2.26h-.72v-6.481h.72v3.33zm3.753-.099c0-1.485.243-3.358 2.134-3.358 1.899 0 2.143 1.873 2.143 3.358 0 1.792-.252 3.403-2.143 3.403s-2.134-1.611-2.134-3.403zm2.116-2.71c-1.107 0-1.369 1.144-1.369 2.593 0 1.882.198 2.872 1.387 2.872s1.396-.99 1.396-2.863c0-1.45-.271-2.602-1.414-2.602zm3.329-.521h1.702c1.215 0 1.782.647 1.782 1.62 0 .72-.333 1.251-.945 1.413v.019c.612.081 1.125.675 1.125 1.575 0 1.206-.667 1.854-1.873 1.854h-1.792v-6.481zm.72 2.753h.891c.72 0 1.125-.261 1.125-1.089 0-.738-.396-1.018-1.053-1.018h-.963v2.107zm0 3.08h1.071c.774 0 1.125-.369 1.125-1.215 0-.874-.45-1.216-1.188-1.216h-1.008v2.431z" fill="#888"/></svg>