<svg xmlns="http://www.w3.org/2000/svg" width="141" height="140.949" viewBox="0 0 141 140.949"><g fill="#FBAE2E"><path d="M44.971 56.891l-3.82-2.205c-2.54 4.703-3.985 10.08-3.985 15.789s1.445 11.087 3.985 15.789l3.82-2.205c-2.16-4.051-3.388-8.673-3.388-13.584s1.229-9.534 3.388-13.584z"/><path d="M40.285 54.185L8.954 36.096C3.26 46.268 0 57.988 0 70.475s3.26 24.206 8.954 34.379l31.331-18.089c-2.625-4.85-4.118-10.399-4.118-16.29s1.493-11.44 4.118-16.29zm58.557 33.808l-3.817-2.204C90.08 93.691 81.427 99.028 71.5 99.366v4.417c11.54-.343 21.624-6.573 27.342-15.79z"/><path d="M99.709 88.493c-5.892 9.516-16.299 15.946-28.209 16.29v36.167c25.315-.354 47.401-14.038 59.549-34.362l-31.34-18.095zm.139-33.808l-3.82 2.205c2.16 4.051 3.388 8.673 3.388 13.584s-1.228 9.534-3.388 13.584l3.82 2.205c2.54-4.703 3.985-10.08 3.985-15.789s-1.445-11.086-3.985-15.789z"/><path d="M132.046 36.096l-31.331 18.089c2.625 4.85 4.118 10.399 4.118 16.29s-1.493 11.44-4.118 16.29l31.331 18.089C137.74 94.681 141 82.961 141 70.475s-3.26-24.207-8.954-34.379zM45.975 85.789l-3.817 2.204c5.718 9.218 15.802 15.447 27.342 15.79v-4.417c-9.927-.338-18.58-5.675-23.525-13.577z"/><path d="M41.291 88.493l-31.34 18.094c12.148 20.324 34.233 34.009 59.549 34.362v-36.167c-11.91-.342-22.317-6.773-28.209-16.289zm.867-35.536l3.817 2.204c4.945-7.903 13.598-13.24 23.525-13.578v-4.417c-11.54.343-21.624 6.573-27.342 15.791z"/><path d="M9.951 34.362l31.34 18.094C47.183 42.94 57.59 36.51 69.5 36.167V0C44.185.354 22.099 14.038 9.951 34.362zM71.5 37.167v4.417c9.927.338 18.58 5.675 23.525 13.577l3.817-2.204C93.124 43.739 83.04 37.509 71.5 37.167z"/><path d="M71.5 0v36.167c11.91.343 22.317 6.774 28.209 16.29l31.34-18.094C118.901 14.038 96.815.354 71.5 0z"/></g></svg>