<svg class="pie3" version="1.1" id="Слой_1" xmlns="http://www.w3.org/2000/svg" xmlns:xlink="http://www.w3.org/1999/xlink" x="0px" y="0px"
     width="142px" height="141.448px" viewBox="0 0 142 141.448">

    <g class="pie3__sector-contain pie3__piece1 _clickable">
        <path class="pie3__sector pie__sector" d="M131.383,35.862C118.56,13.652,96.646,1,71,1v69.724l60.383,34.862
        C144.206,83.376,144.206,58.072,131.383,35.862z"/>
        <path class="pie3__elements" d="M118.688,34.767c-3.813,0-6.904,3.091-6.904,6.904s3.091,6.904,6.904,6.904c3.813,0,6.904-3.091,6.904-6.904
        S122.501,34.767,118.688,34.767z M118.688,47.424c-3.177,0-5.753-2.576-5.753-5.753s2.576-5.753,5.753-5.753
        s5.753,2.576,5.753,5.753S121.866,47.424,118.688,47.424z"/>
        <path class="pie3__elements" d="M118.688,43.493c-1.286,0-2.454,0.497-3.332,1.303c0.161,0.223,0.343,0.428,0.545,0.614
        c0.733-0.678,1.71-1.096,2.787-1.096c1.077,0,2.054,0.418,2.787,1.096c0.201-0.186,0.384-0.392,0.545-0.614
        C121.142,43.989,119.975,43.493,118.688,43.493z"/>
        <circle class="pie3__elements" cx="116.911" cy="40.806" r="1.055"/>
        <circle class="pie3__elements" cx="120.363" cy="40.806" r="1.055"/>
        <text x="106" y="52" class="pie3__text">
            <tspan x="106" dy="1.1em">СРЕДНЯЯ</tspan>
            <tspan x="106" dy="1.1em">ПО СТРАНЕ</tspan>
        </text>
    </g>


    <g class="pie3__sector-contain pie3__piece2 _clickable">
        <path class="pie3__sector pie__sector"
              d="M71,70.724l-60.383,34.862C23.44,127.796,45.354,140.448,71,140.448s47.56-12.652,60.383-34.862L71,70.724z"/>
        <path class="pie3__elements" d="M44.657,110.136c-3.813,0-6.904,3.091-6.904,6.904c0,3.813,3.091,6.904,6.904,6.904s6.904-3.091,6.904-6.904
            C51.562,113.227,48.47,110.136,44.657,110.136z M44.657,122.794c-3.177,0-5.753-2.576-5.753-5.753
            c0-3.177,2.576-5.753,5.753-5.753s5.753,2.576,5.753,5.753C50.411,120.218,47.835,122.794,44.657,122.794z"/>
        <circle class="pie3__elements" cx="42.88" cy="115.995" r="1.055"/>
        <circle class="pie3__elements" cx="46.332" cy="115.995" r="1.055"/>
        <rect x="42.861" y="119.183" class="pie3__elements" width="3.632"
              height="0.863"/>
        <text x="56" y="111" class="pie3__text">
            <tspan x="56" dy="1.1em">ВЫШЕ СРЕДНЕГО</tspan>
            <tspan x="60" dy="1.1em">ПО РЕГИОНУ</tspan>
        </text>
    </g>

    <g class="pie3__sector-contain pie3__piece3 _clickable">
        <path class="pie3__sector pie__sector"
              d="M10.617,35.862c-12.823,22.21-12.823,47.514,0,69.724L71,70.724V1C45.354,1,23.44,13.652,10.617,35.862z"/>
        <path class="pie3__elements" d="M25.096,34.958c-3.813,0-6.904,3.091-6.904,6.904s3.091,6.904,6.904,6.904S32,45.675,32,41.862
            S28.909,34.958,25.096,34.958z M25.096,47.616c-3.177,0-5.753-2.576-5.753-5.753s2.576-5.753,5.753-5.753s5.753,2.576,5.753,5.753
            S28.273,47.616,25.096,47.616z"/>
        <path class="pie3__elements" d="M25.185,45.602c1.286,0,2.454-0.497,3.332-1.303c-0.161-0.223-0.343-0.428-0.545-0.614
                c-0.733,0.678-1.71,1.096-2.787,1.096c-1.077,0-2.054-0.418-2.787-1.096c-0.201,0.186-0.384,0.392-0.545,0.614
                C22.731,45.106,23.899,45.602,25.185,45.602z"/>
        <circle class="pie3__elements" cx="23.408" cy="40.998" r="1.055"/>
        <circle class="pie3__elements" cx="26.86" cy="40.998" r="1.055"/>
        <text x="7" y="53" class="pie3__text">
            <tspan x="8" dy="1.1em">ВЫСОКАЯ</tspan>
            <tspan x="2" dy="1.1em">ПО РЕГИОНУ</tspan>
        </text>
    </g>
    <g>
        <circle class="pie3__elements" cx="72.894" cy="70.724" r="26.657"/>
        <path class="pie3__elements" d="M72.894,103.231c-17.924,0-32.507-14.582-32.507-32.507S54.97,38.217,72.894,38.217
        s32.507,14.582,32.507,32.507S90.818,103.231,72.894,103.231z M72.894,39.368c-17.29,0-31.356,14.066-31.356,31.356
        s14.066,31.356,31.356,31.356s31.356-14.066,31.356-31.356S90.184,39.368,72.894,39.368z"/>
        <path class="pie3__innner-circle" d="M72.319,58.321h-1.523v0.024h-0.575v6.5h-0.837v1.151h0.837v0.939h1.151v-0.939h1.245v-1.151h-1.245v-0.449
        h0.947c1.675,0,3.037-1.362,3.037-3.037C75.356,59.684,73.993,58.321,72.319,58.321z M72.319,63.245h-0.947v-3.773h0.947
        c1.04,0,1.886,0.846,1.886,1.887C74.205,62.398,73.359,63.245,72.319,63.245z"/>
        <path class="pie3__innner-circle" d="M72.082,55.767c-3.813,0-6.904,3.091-6.904,6.904c0,3.813,3.091,6.904,6.904,6.904
        c3.813,0,6.904-3.091,6.904-6.904C78.986,58.858,75.895,55.767,72.082,55.767z M72.082,68.424c-3.177,0-5.753-2.576-5.753-5.753
        c0-3.177,2.576-5.753,5.753-5.753c3.177,0,5.753,2.576,5.753,5.753C77.835,65.848,75.259,68.424,72.082,68.424z"/>
        <text x="59" y="80" class="pie3__text pie3__text_inner">ДОХОДЫ</text>
    </g>
</svg>