<svg xmlns="http://www.w3.org/2000/svg" width="144" height="143.992" viewBox="0 0 144 143.992"><g fill="#1173BB"><path d="M72 104.825c12.001 0 22.513-6.475 28.241-16.112l-4.752-2.744C90.72 93.966 81.987 99.325 72 99.325c-10.058 0-18.842-5.437-23.588-13.528L43.66 88.54c5.705 9.732 16.268 16.285 28.34 16.285z"/><path d="M101.106 89.213C95.205 99.148 84.37 105.825 72 105.825c-12.442 0-23.328-6.755-29.206-16.785l-33.06 19.087c12.47 21.44 35.676 35.865 62.266 35.865 26.518 0 49.672-14.347 62.166-35.692l-33.06-19.087zM0 71.992a71.65 71.65 0 0 0 9.235 35.269l33.06-19.087a33.621 33.621 0 0 1-4.129-16.182c0-18.432 14.819-33.458 33.167-33.816V.009C31.878.369 0 32.451 0 71.992z"/><path d="M39.166 71.992c0 5.676 1.449 11.02 3.995 15.682l4.757-2.746a27.207 27.207 0 0 1-3.252-12.935c0-14.873 11.88-26.962 26.667-27.317v-5.5c-17.796.358-32.167 14.936-32.167 32.816zm33.167-32.825v5.5c14.941.18 27 12.341 27 27.325 0 4.751-1.214 9.219-3.346 13.111l4.752 2.744a32.63 32.63 0 0 0 4.094-15.855c0-17.992-14.549-32.644-32.5-32.825z"/><path d="M72.333 0v38.167c18.502.18 33.5 15.281 33.5 33.825a33.621 33.621 0 0 1-4.228 16.354l33.059 19.087A71.64 71.64 0 0 0 144 71.992C144 32.339 111.943.181 72.333 0z"/></g></svg>