<svg xmlns="http://www.w3.org/2000/svg" width="23.96" height="21.35" viewBox="0 0 23.96 21.35"><path d="M22.02 1.94a6.626 6.626 0 0 0-9.37 0 6.75 6.75 0 0 0-.67.795 6.74 6.74 0 0 0-.669-.795 6.626 6.626 0 0 0-9.37 9.37l8.701 8.701 1.338 1.339 1.339-1.339 8.701-8.701a6.626 6.626 0 0 0 0-9.37zM11.98 18.517S3.926 9.843 3.306 9.843h5.168l1.5-2.219 4 5.258 2-3.039h4.68c-.619.001-8.674 8.674-8.674 8.674zm9.429-9.673h-5.935l-1.5 2.375-4-5.336-2 2.961H2.551c-1.056-2-.824-4.088.727-5.643 1.85-1.848 4.846-1.808 6.693.04.442.441 2.008 2.027 2.008 2.027s1.566-1.556 2.008-1.998c1.849-1.848 4.846-1.921 6.693-.074 1.553 1.554 1.784 3.648.729 5.648z"/></svg>