<svg xmlns="http://www.w3.org/2000/svg" width="14" height="24" viewBox="0 0 14 24"><path d="M9 7a2 2 0 1 0-4.001.001A2 2 0 0 0 9 7zM6 7a1 1 0 1 1 2 0 1 1 0 1 1-2 0z"/><path d="M8 16.687v-2.964A1.99 1.99 0 0 0 9 12v-.169l.12.12a2.001 2.001 0 0 0 2.83-2.83L11.829 9H12a2 2 0 0 0 0-4h-.172l.121-.121a2 2 0 0 0-2.828-2.828L9 2.172V2a2 2 0 1 0-4 .001v.172l-.122-.122a1.998 1.998 0 0 0-2.826-.002 2.001 2.001 0 0 0-.001 2.831l.12.12H2a2 2 0 0 0 0 4h.171l-.121.121a2 2 0 1 0 2.829 2.828L5 11.828V12a1.99 1.99 0 0 0 1 1.723v2.964A5.99 5.99 0 0 0 1 14H0v4a6 6 0 0 0 6 6h2a6 6 0 0 0 6-6v-4h-1a5.99 5.99 0 0 0-5 2.687zm-3.021-6.252l-.808.808a1 1 0 1 1-1.415-1.414l.809-.809A3.93 3.93 0 0 1 3.142 8H2a1 1 0 1 1 0-2h1.142a3.94 3.94 0 0 1 .424-1.021l-.807-.807a1 1 0 1 1 1.412-1.414l.809.809A3.907 3.907 0 0 1 6 3.142V2.001A1.001 1.001 0 0 1 8 2v1.142c.363.093.704.238 1.02.423l.808-.808a1 1 0 1 1 1.414 1.414l-.808.808c.186.317.331.658.424 1.021H12a1 1 0 1 1 0 2h-1.142a3.912 3.912 0 0 1-.424 1.019l.809.809a.999.999 0 0 1 0 1.414.996.996 0 0 1-1.414 0l-.809-.808a3.94 3.94 0 0 1-1.02.424V12a1 1 0 1 1-2 0v-1.142a3.987 3.987 0 0 1-1.021-.423zM6 23a5 5 0 0 1-5-5v-3a5 5 0 0 1 5 5v3zm7-5a5 5 0 0 1-5 5v-3a5 5 0 0 1 5-5v3z"/></svg>