<svg xmlns="http://www.w3.org/2000/svg" width="24" height="23.67" viewBox="0 0 24 23.67"><path d="M22.76 10.67H22V4.833c0-.553-.687-1.163-1.24-1.163h-7.618L16.081.812c.194-.195.265-.28-.058-.602-.311-.31-.568-.195-.764-.001l-3.52 3.461h-.002L8.228.243C8.033.05 7.674-.14 7.389.145c-.285.285-.221.42-.026.614l2.972 2.911H2.76c-.552 0-.76.611-.76 1.163v5.837H.76c-.553 0-.76.61-.76 1.163v4c0 .553.208.837.76.837H2v6.163c0 .553.208.837.76.837h18c.553 0 1.24-.284 1.24-.837V16.67h.76c.553 0 1.24-.284 1.24-.837v-4c0-.552-.687-1.163-1.24-1.163zM1 15.67v-4h2v4H1zm19 6H4v-16h16v16zm3-6h-2v-4h2v4z"/><path d="M15.76 8.833a2 2 0 1 0-.001 3.999 2 2 0 0 0 .001-3.999zm0 3a1 1 0 1 1 0-2 1 1 0 1 1 0 2zm-8 1a2 2 0 1 0-.001-4.001 2 2 0 0 0 .001 4.001zm0-3a1 1 0 1 1 0 2 1 1 0 1 1 0-2zM17 16.67a1 1 0 0 0-1-1H8a1 1 0 0 0-1 1v2a1 1 0 0 0 1 1h8a1 1 0 0 0 1-1v-2zm-9.24 2.163v-2h2v2h-2zm3 0v-2h2v2h-2zm5 0h-2v-2h2v2z"/></svg>