<svg xmlns="http://www.w3.org/2000/svg" width="24.002" height="23.705" viewBox="0 0 24.002 23.705"><path d="M23.077 7.508C22.28 6.952 12.52.209 12.52.209c-.391-.278-1.281-.278-1.672 0 0 0-9.664 6.85-10.287 7.275-.623.426-.56 1.019-.56 1.019v.538c0 .532 0 .664.533.664h1.467v12H.571c-.553 0-.57.746-.57 1.299v.701h24v-.701c0-.553-.877-1.299-1.43-1.299h-.57v-12h.607c.532 0 1.393-.132 1.393-.664v-.538c.001 0-.129-.44-.924-.995zM11.572 1.705l8.901 6H2.67l8.902-6zm-8.57 20v-12h2v12h-2zm3 0v-12h4v12h-4zm5 0v-12h2v12h-2zm3 0v-12h4v12h-4zm7 0h-2v-12h2v12z"/></svg>