<svg xmlns="http://www.w3.org/2000/svg" width="24" height="23.52" viewBox="0 0 24 23.52"><path d="M23.318 18.348l-3.431-3.402c-.274-5.384-2.704-10.193-6.411-13.629A19.955 19.955 0 0 0 11.892 0a20.1 20.1 0 0 0-1.58 1.316C6.606 4.752 4.189 9.561 3.914 14.945L.568 18.347c-.281.282-.568.479-.568 1.032v3.594c0 .553.333.548.885.548h22c.553 0 1.115.005 1.115-.548v-3.594c0-.553-.401-.75-.682-1.031zm-17.171.172h11.477c-.179 1-.444 2-.791 3H6.938c-.347-1-.612-2-.791-3zm11.61-1H6.013c-.075-1-.128-1-.128-2h12c0 1-.052 1-.128 2zM11.885 2.131c3.441 3.087 5.673 7.39 5.945 12.39H5.94c.272-5.001 2.504-9.303 5.945-12.39zM1 22.52v-3.048l2.968-3.252c.055 2.296.447 4.299 1.215 6.299H1zm22 0h-4.413c.769-2 1.275-4.003 1.33-6.299L23 19.473v3.047z"/><path d="M11.885 12.973a3 3 0 1 0 0-6 3 3 0 0 0 0 6zm0-5a2 2 0 1 1-.001 4.001 2 2 0 0 1 .001-4.001z"/></svg>