<svg xmlns="http://www.w3.org/2000/svg" width="26" height="26" viewBox="0 0 26 26"><path fill="#898989" d="M25 2a1 1 0 0 0-1-1H2a1 1 0 0 0-1 1v22a1 1 0 0 0 1 1h22a1 1 0 0 0 1-1V2zm-2 21H3V3h20v20z"/><g fill="#898989"><path d="M10.765 8.497h8v1h-8zM10.765 11.497h8v1h-8zM14.38 13.497h4.385v1H14.38zM10.667 19.497h8.098v-1h-7.098zM12.667 17.497h6.098v-1h-5.098zM10.765 6.497h8v1h-8zM9.765 6.497h-3v3h3v-3zm-1 2.003h-1v-1h1v1zM9.765 11.497h-3v3h3v-3zM8.78 13.5h-1v-1h1v1z"/></g><path fill="#898989" d="M12.67 15.697c.086-.087.086-.193 0-.28l-.837-.837c-.087-.086-.193-.086-.28 0l-2.696 2.697L7.4 15.82c-.087-.087-.193-.087-.28 0l-.836.837c-.087.087-.087.192 0 .28l2.4 2.4s.167.178.312.033l3.674-3.673z"/></svg>