<svg xmlns="http://www.w3.org/2000/svg" width="36.39" height="25.752" viewBox="0 0 36.39 25.752"><path d="M29.601 1.018a.82.82 0 0 0-.591-.467L26.228.016a.818.818 0 0 0-.31 1.606l2.366.455 4.912 10.906a7.965 7.965 0 0 0-12.952.312c-.454-.359-1.137-.581-1.941-.599-.718-.017-1.581.15-2.154.605a7.969 7.969 0 0 0-6.591-3.494 7.965 7.965 0 0 0-6.405 3.23l4.85-10.96 2.362-.454a.817.817 0 1 0-.31-1.606L7.274.55a.818.818 0 0 0-.593.472S0 16.099 0 16.252v2.085c0 .226.183.409.409.409h1.098a.405.405 0 0 0 .139-.028c.467 3.955 3.834 7.033 7.913 7.033 4.396 0 7.973-3.577 7.973-7.973a7.923 7.923 0 0 0-.95-3.769c.323-.314.969-.516 1.704-.498.673.015 1.243.204 1.529.485a7.927 7.927 0 0 0-.956 3.782c0 4.396 3.577 7.973 7.973 7.973 4.078 0 7.446-3.079 7.913-7.033.044.016.09.028.139.028h1.097a.409.409 0 0 0 .409-.409v-2.085c0-.148-6.789-15.234-6.789-15.234zM1.507 17.929H.818v-1.268h.835c.007 0 .013-.004.02-.004-.052.368-.088.74-.088 1.122 0 .056.007.111.009.168-.029-.007-.056-.018-.087-.018zm8.052 6.188c-3.495 0-6.338-2.843-6.338-6.338s2.843-6.338 6.338-6.338 6.338 2.843 6.338 6.338-2.844 6.338-6.338 6.338zm17.272 0c-3.495 0-6.338-2.843-6.338-6.338s2.843-6.338 6.338-6.338 6.338 2.843 6.338 6.338-2.843 6.338-6.338 6.338zm8.741-6.188h-.689c-.031 0-.058.011-.087.018.001-.056.009-.111.009-.168 0-.381-.036-.754-.088-1.122.007 0 .013.004.021.004h.835v1.268zm-3.736-.078a.409.409 0 1 1-.818 0c0-1.135-.655-2.181-1.711-2.729a.409.409 0 0 1 .377-.725c1.328.689 2.152 2.013 2.152 3.454zM7.341 21.383a.41.41 0 0 1-.534.222c-1.653-.684-2.642-2.293-2.46-4.004a.409.409 0 0 1 .813.087c-.144 1.347.644 2.617 1.959 3.161a.41.41 0 0 1 .222.534z"/></svg>