<svg id="Слой_1" xmlns="http://www.w3.org/2000/svg" width="10.139" height="12.167" viewBox="0 0 10.139 12.167"><style>.st0{fill:#0071bc}</style><path class="st0" d="M9.632 1.014H6.59V.507A.494.494 0 0 0 6.099 0H4.071a.52.52 0 0 0-.523.507v.507H.507A.507.507 0 0 0 0 1.521v2.028c0 .28.18.507.507.507v7.604c0 .28.243.507.523.507h8.128c.28 0 .474-.227.474-.507V4.056c.507 0 .507-.227.507-.507V1.521a.507.507 0 0 0-.507-.507zM4.056.507h2.028v.507H4.056V.507zM1.521 11.153V4.056h1.014v7.097H1.521zm1.521 0V4.056h1.014v7.097H3.042zm1.521 0V4.056h1.014v7.097H4.563zm1.52 0V4.056h1.014v7.097H6.083zm2.535 0H7.604V4.056h1.014v7.097zm.507-8.111H1.014V2.028h8.111v1.014z"/></svg>