<svg id="Слой_1" xmlns="http://www.w3.org/2000/svg" width="12.833" height="8.556" viewBox="0 0 12.833 8.556"><style>.st0{fill:#0071bc}</style><path class="st0" d="M6.417 0C1.604-.001 0 4.278 0 4.278s1.604 4.278 6.417 4.278c4.813-.001 6.417-4.278 6.417-4.278S11.229 0 6.417 0zm-.001 7.486c-3.244 0-4.759-2.283-5.239-3.207.481-.918 2.005-3.21 5.24-3.21 3.244 0 4.759 2.283 5.24 3.206-.482.92-2.006 3.211-5.241 3.211z"/><path class="st0" d="M6.417 1.604a2.674 2.674 0 1 0 0 5.348 2.674 2.674 0 0 0 0-5.348zm0 4.813a2.14 2.14 0 1 1 0-4.279 2.14 2.14 0 0 1 0 4.279z"/><circle class="st0" cx="6.417" cy="4.278" r="1.604"/></svg>