<svg xmlns="http://www.w3.org/2000/svg" width="11.302" height="11.302" viewBox="0 0 11.302 11.302"><path d="M8.318 5.651l2.829-2.829c.207-.207.207-.46 0-.667l-2-2c-.207-.207-.46-.207-.667 0L5.651 2.984 2.822.155c-.207-.207-.46-.207-.667 0l-2 2c-.207.207-.207.46 0 .667l2.829 2.829L.155 8.48c-.207.207-.207.459 0 .667l2 2c.207.207.46.207.667 0l2.829-2.828 2.829 2.828c.207.207.459.207.667 0l2-2c.207-.207.207-.46 0-.667L8.318 5.651zm.495 4.496L5.651 6.985l-3.162 3.162-1.334-1.334 3.162-3.162-3.162-3.162 1.333-1.333L5.65 4.318l3.162-3.162 1.333 1.333-3.161 3.162 3.162 3.162-1.333 1.334z"/></svg>