<svg xmlns="http://www.w3.org/2000/svg" width="26.001" height="26" viewBox="0 0 26.0005379 26"><g fill="#0071BC"><path d="M24 1H2a1 1 0 0 0-1 1v22a1 1 0 0 0 1 1h22a1 1 0 0 0 1-1V2a1 1 0 0 0-1-1zm-1 22H3V3h20v20z"/><path d="M9.188 14.945l-.752 4.385a.501.501 0 0 0 .725.527l3.938-2.07 3.937 2.07a.501.501 0 0 0 .726-.527l-.752-4.385 3.185-3.105a.501.501 0 0 0-.277-.853l-4.402-.64-1.969-3.989a.501.501 0 0 0-.897 0l-1.968 3.99-4.402.64a.501.501 0 0 0-.278.852l3.186 3.105zm1.898-3.646a.502.502 0 0 0 .376-.273L13.1 7.71l1.636 3.316c.073.147.215.25.377.273l3.66.532-2.649 2.581a.502.502 0 0 0-.143.443l.625 3.645-3.273-1.72a.502.502 0 0 0-.466 0L9.593 18.5l.625-3.645a.502.502 0 0 0-.144-.443l-2.648-2.581 3.66-.532z"/></g></svg>