<svg id="Слой_1" xmlns="http://www.w3.org/2000/svg" width="24" height="24" viewBox="0 0 24 24"><style>.st0{fill:#0071bc}</style><path class="st0" d="M23 4l-5.029 1.428A6 6 0 0 0 7.375 2.18v-.001L1 4a1 1 0 0 0-1 1v16a1 1 0 0 0 1 1l7-2 8 4 7-2a1 1 0 0 0 1-1V5a1 1 0 0 0-1-1zM12 1c2.762 0 5 2.238 5 5s-1 3.5-5 7.5C8 9.5 7 8.762 7 6s2.238-5 5-5zm0 14c1.227-1.227 2.211-2.191 3-3.002V21.5l-6-3v-6.502c.789.811 1.773 1.775 3 3.002zM2 20V6l4.168-1.39A6.017 6.017 0 0 0 6 6c0 2.111.412 3.16 2 4.934V18l-6 2zM6.991 2.7l-.065.108.065-.108zm-.333.577c-.017.033-.032.067-.048.1l.048-.1zm-.279.639c-.006.02-.014.037-.019.057.005-.02.013-.038.019-.057zM22 20l-6 2V10.934c1.205-1.346 1.73-2.28 1.914-3.571L22 6v14z"/><path class="st0" d="M12 9a3.001 3.001 0 0 0 0-6 3.001 3.001 0 0 0 0 6zm0-5a2 2 0 1 1-.001 4.001A2 2 0 0 1 12 4z"/></svg>