<svg id="Слой_1" xmlns="http://www.w3.org/2000/svg" width="25.021" height="26.917" viewBox="0 0 25.021 26.917"><style>.st0{fill:#0071bc}</style><path class="st0" d="M17.573 11.75V0H7.406v11.75H0v15.167h25.021V11.75h-7.448zM1.5 25.417V13.25h5.906v12.167H1.5zm14.573 0H8.941V11.75h-.035V1.5h7.167v23.917zm7.448 0H17.58V13.25h5.941v12.167z"/><path class="st0" d="M10.511 3.167h3.688v1.5h-3.688zm0 2.937h3.688v1.5h-3.688zm0 2.938h3.688v1.5h-3.688zm0 2.937h3.688v1.5h-3.688zm0 2.938h3.688v1.5h-3.688zm0 2.937h3.688v1.5h-3.688zm-7.688-2.937h3.063v1.5H2.823zm0 2.937h3.063v1.5H2.823zm0 2.938h3.063v1.5H2.823zm16.125-5.875h3.063v1.5h-3.063zm0 2.937h3.063v1.5h-3.063zm0 2.938h3.063v1.5h-3.063z"/></svg>