<?xml version="1.0" encoding="utf-8"?>
<!-- Generator: Adobe Illustrator 17.1.0, SVG Export Plug-In . SVG Version: 6.00 Build 0)  -->
<!DOCTYPE svg PUBLIC "-//W3C//DTD SVG 1.1//EN" "http://www.w3.org/Graphics/SVG/1.1/DTD/svg11.dtd">
<svg version="1.1" id="Layer_1" xmlns="http://www.w3.org/2000/svg" xmlns:xlink="http://www.w3.org/1999/xlink" x="0px" y="0px"
	 width="24px" height="24px" viewBox="0 0 24 24" style="enable-background:new 0 0 24 24;" xml:space="preserve">
<style type="text/css">
	.st0{fill:#1072BA;}
</style>
<g>
	<path class="st0" d="M12.411,4.44H8.765v11.339H7.31v2h1.454v1.632h2v-1.632h2.164v-2h-2.164v-0.781h1.646
		c2.91,0,5.278-2.368,5.278-5.279S15.321,4.44,12.411,4.44z M12.411,12.998h-1.646V6.44h1.646c1.808,0,3.278,1.471,3.278,3.279
		S14.219,12.998,12.411,12.998z"/>
	<path class="st0" d="M12,0C5.373,0,0,5.373,0,12c0,6.627,5.373,12,12,12c6.627,0,12-5.373,12-12C24,5.373,18.627,0,12,0z M12,22
		C6.478,22,2,17.522,2,12C2,6.477,6.478,2,12,2c5.522,0,10,4.477,10,10C22,17.522,17.522,22,12,22z"/>
</g>
<g>
</g>
<g>
</g>
<g>
</g>
<g>
</g>
<g>
</g>
<g>
</g>
</svg>
