<?xml version="1.0" encoding="utf-8"?>
<!-- Generator: Adobe Illustrator 17.1.0, SVG Export Plug-In . SVG Version: 6.00 Build 0)  -->
<!DOCTYPE svg PUBLIC "-//W3C//DTD SVG 1.1//EN" "http://www.w3.org/Graphics/SVG/1.1/DTD/svg11.dtd">
<svg version="1.1" id="Layer_1" xmlns="http://www.w3.org/2000/svg" xmlns:xlink="http://www.w3.org/1999/xlink" x="0px" y="0px"
	 width="19.842px" height="23.089px" viewBox="0 0 19.842 23.089" style="enable-background:new 0 0 19.842 23.089;"
	 xml:space="preserve">
<style type="text/css">
	.st0{fill:#1072BA;}
</style>
<g>
	<path class="st0" d="M10.17,23.088l-0.579-0.014c-6.43-1.063-10.402-8.822-9.445-18.452L0.25,3.57l1.045,0.164
		c0.273,0.042,0.551,0.064,0.826,0.064c3.465,0,6.01-3.361,6.035-3.396L8.456,0h2.931l0.3,0.403
		c0.024,0.032,2.591,3.395,6.033,3.395c0.275,0,0.553-0.021,0.826-0.064l1.045-0.164l0.104,1.052
		c0.958,9.628-3.014,17.389-9.444,18.452L10.17,23.088z M9.839,21.088h0.164c5.107-0.903,8.296-7.243,7.782-15.29
		c-0.021,0-0.043,0-0.065,0c-3.677,0-6.397-2.741-7.31-3.798H9.432C8.52,3.056,5.798,5.798,2.121,5.798c-0.021,0-0.043,0-0.065,0
		C1.543,13.845,4.731,20.185,9.839,21.088z"/>
	<path class="st0" d="M9.921,20.596l-0.095-0.018C5.23,19.694,2.291,14.13,2.513,6.736L2.526,6.3l0.434-0.046
		c3.085-0.33,5.427-2.394,6.549-3.595L9.657,2.5h0.435l0.242,0.159c1.121,1.201,3.461,3.265,6.548,3.595L17.315,6.3l0.014,0.436
		c0.221,7.395-2.718,12.958-7.313,13.843L9.921,20.596z M3.503,7.19c-0.087,6.62,2.46,11.556,6.417,12.387
		c3.957-0.831,6.505-5.768,6.418-12.387c-2.923-0.457-5.168-2.261-6.418-3.519C8.669,4.929,6.423,6.733,3.503,7.19z"/>
</g>
<g>
</g>
<g>
</g>
<g>
</g>
<g>
</g>
<g>
</g>
<g>
</g>
</svg>
