<?xml version="1.0" encoding="utf-8"?>
<!-- Generator: Adobe Illustrator 17.1.0, SVG Export Plug-In . SVG Version: 6.00 Build 0)  -->
<!DOCTYPE svg PUBLIC "-//W3C//DTD SVG 1.1//EN" "http://www.w3.org/Graphics/SVG/1.1/DTD/svg11.dtd">
<svg version="1.1" id="Layer_1" xmlns="http://www.w3.org/2000/svg" xmlns:xlink="http://www.w3.org/1999/xlink" x="0px" y="0px"
	 width="30.003px" height="29.413px" viewBox="0 0 30.003 29.413" style="enable-background:new 0 0 30.003 29.413;"
	 xml:space="preserve">
<style type="text/css">
	.st0{fill:#1072BA;}
</style>
<g>
	<path class="st0" d="M15.001,11.94c-1.525,0-2.766,1.241-2.766,2.767s1.241,2.767,2.766,2.767s2.767-1.241,2.767-2.767
		S16.527,11.94,15.001,11.94z M15.001,15.473c-0.422,0-0.766-0.344-0.766-0.767s0.344-0.767,0.766-0.767
		c0.423,0,0.767,0.344,0.767,0.767S15.424,15.473,15.001,15.473z"/>
	<path class="st0" d="M30.003,14.707c0-2.601-3.788-4.318-8.643-5.103c0.081-1.421,0.07-2.76-0.05-3.959
		c-0.412-4.146-1.894-5.325-3.064-5.584C18.066,0.02,17.879,0,17.693,0c-1.915,0-3.716,2.047-5.197,4.945
		C10.42,3.547,8.521,2.744,7.092,2.744c-0.797,0-1.461,0.228-1.974,0.677c-1.485,1.3-1.144,3.91,0.242,6.913
		C2.188,11.27,0,12.733,0,14.707c0,2.601,3.788,4.319,8.643,5.103c-0.081,1.42-0.07,2.76,0.049,3.959
		c0.412,4.146,1.894,5.324,3.064,5.584c0.181,0.04,0.367,0.061,0.554,0.061c1.915,0,3.716-2.047,5.197-4.946
		c2.075,1.398,3.975,2.201,5.403,2.201c0.797,0,1.462-0.229,1.975-0.678c0.901-0.789,1.634-2.535,0.004-6.369
		c-0.076-0.178-0.165-0.361-0.249-0.543C27.814,18.144,30.003,16.681,30.003,14.707z M17.693,2c0.042,0,0.082,0.004,0.122,0.013
		c0.572,0.126,1.261,1.36,1.506,3.829c0.105,1.058,0.12,2.239,0.055,3.496c-0.614-0.064-1.237-0.114-1.867-0.151
		c-1.127-1.145-2.267-2.169-3.38-3.047C15.47,3.439,16.849,2,17.693,2z M20.473,15.879c0.434,0.627,0.836,1.247,1.198,1.858
		c-0.544,0.1-1.123,0.187-1.727,0.263c0.191-0.694,0.368-1.39,0.521-2.082C20.468,15.905,20.47,15.892,20.473,15.879z
		 M18.512,15.484c-0.213,0.963-0.448,1.872-0.698,2.725c-0.891,0.06-1.83,0.093-2.813,0.093c-0.553,0-1.088-0.013-1.613-0.032
		c-0.363-0.384-0.727-0.778-1.092-1.195c-0.408-0.466-0.787-0.925-1.153-1.38c0.103-0.584,0.216-1.172,0.347-1.766
		c0.213-0.963,0.448-1.871,0.698-2.724c0.891-0.06,1.829-0.093,2.813-0.093c0.553,0,1.089,0.013,1.614,0.032
		c0.362,0.383,0.726,0.777,1.091,1.194c0.401,0.458,0.782,0.919,1.153,1.382C18.756,14.303,18.644,14.891,18.512,15.484z
		 M17.15,20.243c-0.142,0.398-0.287,0.781-0.435,1.147c-0.416-0.341-0.839-0.703-1.271-1.095
		C16.016,20.289,16.584,20.272,17.15,20.243z M9.529,13.54c-0.446-0.642-0.849-1.265-1.204-1.862c0.546-0.1,1.128-0.188,1.734-0.265
		c-0.191,0.694-0.367,1.391-0.521,2.082C9.535,13.511,9.533,13.525,9.529,13.54z M12.853,9.17c0.142-0.398,0.287-0.781,0.435-1.147
		c0.416,0.341,0.839,0.703,1.271,1.096C13.988,9.124,13.419,9.142,12.853,9.17z M6.436,4.926c0.138-0.121,0.358-0.182,0.656-0.182
		c1.01,0,2.63,0.691,4.555,2.032c-0.344,0.818-0.664,1.675-0.956,2.555c-1.17,0.121-2.299,0.293-3.363,0.513
		C6.089,7.299,5.826,5.46,6.436,4.926z M2,14.707c0-0.811,1.557-1.825,4.289-2.569c0.765,1.35,1.692,2.74,2.734,4.099
		c-0.083,0.534-0.152,1.061-0.211,1.582C4.534,17.104,2,15.742,2,14.707z M12.31,27.414c-0.042,0-0.082-0.005-0.122-0.014
		c-0.573-0.127-1.261-1.36-1.506-3.829c-0.105-1.058-0.12-2.239-0.055-3.496c0.614,0.064,1.237,0.114,1.866,0.151
		c1.127,1.145,2.267,2.169,3.381,3.047C14.533,25.974,13.154,27.414,12.31,27.414z M23.048,20.406
		c0.972,2.283,0.96,3.695,0.519,4.082c-0.138,0.12-0.358,0.182-0.656,0.182c-1.01,0-2.63-0.691-4.555-2.032
		c0.344-0.818,0.664-1.675,0.956-2.555c1.167-0.12,2.292-0.292,3.353-0.511C22.802,19.853,22.932,20.133,23.048,20.406z
		 M23.714,17.276c-0.754-1.334-1.673-2.718-2.734-4.098c0.083-0.534,0.152-1.061,0.211-1.582c4.278,0.714,6.812,2.076,6.812,3.111
		C28.003,15.518,26.446,16.531,23.714,17.276z"/>
</g>
<g>
</g>
<g>
</g>
<g>
</g>
<g>
</g>
<g>
</g>
<g>
</g>
</svg>
