<?xml version="1.0" encoding="utf-8"?>
<!-- Generator: Adobe Illustrator 17.1.0, SVG Export Plug-In . SVG Version: 6.00 Build 0)  -->
<!DOCTYPE svg PUBLIC "-//W3C//DTD SVG 1.1//EN" "http://www.w3.org/Graphics/SVG/1.1/DTD/svg11.dtd">
<svg version="1.1" id="Layer_1" xmlns="http://www.w3.org/2000/svg" xmlns:xlink="http://www.w3.org/1999/xlink" x="0px" y="0px"
	 width="24px" height="24px" viewBox="0 0 24 24" style="enable-background:new 0 0 24 24;" xml:space="preserve">
<style type="text/css">
	.st0{fill:#FFFFFF;}
</style>
<g>
	<path class="st0" d="M12,0C5.373,0,0,5.373,0,12s5.373,12,12,12s12-5.373,12-12S18.627,0,12,0z M12,22C6.477,22,2,17.522,2,12
		S6.477,2,12,2s10,4.477,10,10S17.522,22,12,22z"/>
	<g>
		<path class="st0" d="M12,15.167c-2.236,0-4.265,0.863-5.791,2.265c0.279,0.387,0.597,0.744,0.946,1.068
			c1.274-1.179,2.972-1.905,4.844-1.905c1.872,0,3.571,0.726,4.844,1.905c0.35-0.324,0.667-0.681,0.946-1.068
			C16.265,16.03,14.236,15.167,12,15.167z"/>
	</g>
	<circle class="st0" cx="8.911" cy="10.498" r="1.833"/>
	<circle class="st0" cx="14.911" cy="10.498" r="1.833"/>
</g>
<g>
</g>
<g>
</g>
<g>
</g>
<g>
</g>
<g>
</g>
<g>
</g>
</svg>
