<svg id="Слой_1" xmlns="http://www.w3.org/2000/svg" width="19.063" height="21.951" viewBox="0 0 19.063 21.951"><style>.st0{fill:#0071bc}</style><path class="st0" d="M11.545 14.402a5.756 5.756 0 0 0 3.679-5.359c0-.112-.012-.221-.018-.332l.141.073V5.875l3.716-1.009L9.472 0 .001 4.806l3.533 1.147.002 2.923.201-.136c-.005.101-.017.201-.017.303 0 2.44 1.53 4.525 3.679 5.359-3.869.654-6.276 3.174-6.28 6.798l-.001.751h16.709l-.002-.751c-.004-3.624-2.411-6.144-6.28-6.798zM9.472 1.682l5.437 2.759-1.062.288v1.644c-1.537-.642-3.097-.966-4.65-.966-1.8 0-3.235.437-4.163.829V4.863l-1.117-.362 5.555-2.819zM5.22 9.043c0-.465.078-.914.222-1.344a9.188 9.188 0 0 1 3.756-.791c1.446 0 2.906.346 4.351.99.104.371.175.751.175 1.146 0 2.345-1.907 4.252-4.252 4.252S5.22 11.388 5.22 9.043zM2.662 20.451c.418-3.465 3.714-4.723 6.81-4.723s6.392 1.258 6.81 4.723H2.662z"/></svg>